<?xml version="1.0" encoding="UTF-8" standalone="no"?>
<svg
   version="1.1"
   width="240"
   height="240"
   viewBox="0 0 24 24"
   id="svg1443"
   sodipodi:docname="power.svg"
   inkscape:version="1.1 (c4e8f9ed74, 2021-05-24)"
   xmlns:inkscape="http://www.inkscape.org/namespaces/inkscape"
   xmlns:sodipodi="http://sodipodi.sourceforge.net/DTD/sodipodi-0.dtd"
   xmlns="http://www.w3.org/2000/svg"
   xmlns:svg="http://www.w3.org/2000/svg">
  <defs
     id="defs1447" />
  <sodipodi:namedview
     id="namedview1445"
     pagecolor="#ffffff"
     bordercolor="#666666"
     borderopacity="1.0"
     inkscape:pageshadow="2"
     inkscape:pageopacity="0.0"
     inkscape:pagecheckerboard="0"
     showgrid="false"
     inkscape:zoom="3.6041667"
     inkscape:cx="63.260116"
     inkscape:cy="120.13873"
     inkscape:window-width="1896"
     inkscape:window-height="1031"
     inkscape:window-x="10"
     inkscape:window-y="35"
     inkscape:window-maximized="0"
     inkscape:current-layer="svg1443" />
  <path
     fill="#d5c4a1"
     d="M16.56,5.44L15.11,6.89C16.84,7.94 18,9.83 18,12A6,6 0 0,1 12,18A6,6 0 0,1 6,12C6,9.83 7.16,7.94 8.88,6.88L7.44,5.44C5.36,6.88 4,9.28 4,12A8,8 0 0,0 12,20A8,8 0 0,0 20,12C20,9.28 18.64,6.88 16.56,5.44M13,3H11V13H13"
     id="path1441"
     style="fill:#d8dee9;fill-opacity:1" />
</svg>
